<?xml version="1.0"?>
<svg xmlns="http://www.w3.org/2000/svg" id="Layer_1" data-name="Layer 1" viewBox="0 0 512 512" width="512" height="512"><title>Steam engine</title><path d="M376.36,303.47v31.32a4,4,0,0,1-4,4H139.64a4,4,0,0,1-4-4V303.47a4,4,0,0,1,4-4H372.36A4,4,0,0,1,376.36,303.47Z" style="fill:#e48e66"/><polygon points="319.61 406.21 371.51 470.5 140.49 470.5 192.39 406.21 192.69 405.2 257.6 424.53 319.35 405.36 319.61 406.21" style="fill:#6fe3ff"/><path d="M349.12,265a17.21,17.21,0,1,1,0,34.42c-.58,0-1.15-.04-1.71-.09a17.21,17.21,0,0,1,0-34.25C347.97,265.03,348.54,265,349.12,265Z" style="fill:#f8ec7d"/><path d="M360.22,338.79v30.56c0,21.8-25.22,31.15-25.22,31.15l-15.65,4.86L257.6,424.53,192.69,405.2l-15.79-4.7s-25.12-9.35-25.12-31.15V338.79Z" style="fill:#f8ec7d"/><path d="M347.41,130.46V265.08a17.207,17.207,0,0,0-15.5,17.12V265H300.09a60.834,60.834,0,0,0-6.53-89.78l.41-.49V100.02c0-.19,0-.38-.01-.56h26.71C335.37,99.46,347.41,113.41,347.41,130.46Z" style="fill:#e48e66"/><path d="M331.91,282.2v17.22H180.01V265h31.9a60.832,60.832,0,0,0,88.18,0h31.82Z" style="fill:#af593c"/><path d="M316.84,223.08a60.852,60.852,0,1,1-62.04-60.82c.4.03.8.04,1.2.04s.8-.01,1.2-.04a60.827,60.827,0,0,1,59.64,60.82Zm-38.09,21.63A31.417,31.417,0,1,0,256,254.46,31.321,31.321,0,0,0,278.75,244.71Z" style="fill:#f8ec7d"/><path d="M295.82,41.5V52.3c0,5.94-7.62,10.8-16.94,10.8H233.12c-9.32,0-16.94-4.86-16.94-10.8V41.5Z" style="fill:#6fe3ff"/><path d="M293.97,174.73l-.41.49a60.513,60.513,0,0,0-36.36-12.96,17.21,17.21,0,1,0-2.4,0,60.493,60.493,0,0,0-36.38,12.97l-.4-.5V100.02c0-.19,0-.38.01-.56a15.554,15.554,0,0,1,15.49-14.94h44.95a15.548,15.548,0,0,1,15.49,14.94c.01.18.01.37.01.56Z" style="fill:#f8ec7d"/><path d="M287.38,223.08A31.385,31.385,0,1,1,256,191.69,31.321,31.321,0,0,1,287.38,223.08Z" style="fill:#6fe3ff"/><rect x="233.57" y="63.1" width="44.86" height="21.42" style="fill:#f8ec7d"/><path d="M256,127.88a17.211,17.211,0,0,1,1.2,34.38c-.4-.02-.8-.02-1.2-.02s-.8,0-1.2.02a17.211,17.211,0,0,1,1.2-34.38Z" style="fill:#e48e66"/><path d="M218.02,174.73l.4.5A60.84,60.84,0,0,0,211.91,265h-31.9v17.2a17.215,17.215,0,0,0-15.5-17.12V130.46c0-17.05,12.03-31,26.73-31h26.79c-.01.18-.01.37-.01.56Z" style="fill:#e48e66"/><path d="M164.51,265.08a17.21,17.21,0,0,1,0,34.25c-.57.05-1.13.09-1.71.09a17.21,17.21,0,1,1,0-34.42C163.38,265,163.94,265.03,164.51,265.08Z" style="fill:#f8ec7d"/><path d="M139.64,346H145v23.35c0,11.1,5.135,21.2,15.057,29.2a57.925,57.925,0,0,0,14.456,8.51c.147.055.267.105.417.149l6.182,1.845L135.05,466.1a7.437,7.437,0,0,0-.872,7.666A7.235,7.235,0,0,0,140.49,478H371.51a7.295,7.295,0,0,0,5.447-11.772l-46.024-57.073,6.143-1.939c.12-.037.239-.093.357-.137a58.627,58.627,0,0,0,14.45-8.513c9.961-8,15.117-18.107,15.117-29.216V346h5.36c6.065,0,10.64-5.145,10.64-11.21V303.47c0-6.065-4.575-11.47-10.64-11.47h-1.321a22.547,22.547,0,0,0,2.086-10.035A23.968,23.968,0,0,0,354,258.589V130.46C354,109.507,339.274,92,320.67,92h-21A23,23,0,0,0,285,78.63V69.446c11-2.07,18-8.861,18-17.146V41.5c0-3.866-3.314-6.5-7.18-6.5H216.18c-3.866,0-7.18,2.634-7.18,6.5V52.3c0,8.285,7,15.076,18,17.146v9.173A23.019,23.019,0,0,0,212.32,92H191.24c-18.6,0-33.24,17.507-33.24,38.46V258.589a24,24,0,0,0-19.165,23.376A22.53,22.53,0,0,0,140.881,292H139.64c-6.065,0-10.64,5.4-10.64,11.47v31.32C129,340.855,133.575,346,139.64,346ZM356.863,464H155.137L195.6,413.623l60,17.741a6.945,6.945,0,0,0,2,.228,7.022,7.022,0,0,0,2.075-.346l56.871-17.422ZM353,369.35c0,6.714-3.159,12.794-9.606,18.068a44.98,44.98,0,0,1-10.756,6.469L257.53,417.213l-78.361-23.337a44.839,44.839,0,0,1-10.61-6.451C162.139,382.15,159,376.069,159,369.35V346H353ZM369,332H143V306H369ZM222.749,180.73a53.265,53.265,0,0,1,32.113-11.469c.38.017.759.039,1.138.039.426,0,.847.125,1.256.1,11.716.263,22.77,3.6,31.978,11.6h0a52.877,52.877,0,0,1,20.6,42.218,53.84,53.84,0,1,1-87.091-42.488Zm34.16-25.478q-.915-.025-1.831,0a10.217,10.217,0,1,1,1.831,0ZM209.013,272a67.8,67.8,0,0,0,93.972,0H325v20H187V272ZM359.33,282.2a10.227,10.227,0,0,1-10.21,10.22c-.343,0-.743-.032-1.022-.056a10.21,10.21,0,0,1-.03-20.315c.378-.033.722-.049,1.052-.049A10.217,10.217,0,0,1,359.33,282.2ZM340,130.46V259.611a19.674,19.674,0,0,0-2.621,1.3A6.607,6.607,0,0,0,331.91,258H314.154a67.547,67.547,0,0,0,9.7-34.92c0-19.611-7.855-37.9-22.855-50.789V106h19.67C331.555,106,340,117.227,340,130.46ZM241,78V70h30v8ZM223,52.3V49h66v3.291c0,.887-3.693,3.709-10.12,3.709H233.12C226.693,56,223,53.178,223,52.3Zm2.016,47.414a8.588,8.588,0,0,1,7.466-8.116c.354.055.716.332,1.085.332.522,0,1.032.07,1.521.07h41.824c.489,0,1-.07,1.518-.07a7.187,7.187,0,0,0,1.1-.214,8.534,8.534,0,0,1,7.438,7.886c0,.131.035.2.035.33v62.775a53.436,53.436,0,0,0-10.73-4.4,24.211,24.211,0,1,0-40.536,0A53.344,53.344,0,0,0,225,162.706V99.839C225,99.8,225.014,99.755,225.016,99.714ZM191.24,106H211V172.3c-15,12.892-22.85,31.183-22.85,50.785A67.54,67.54,0,0,0,197.841,258H180.01a6.539,6.539,0,0,0-5.437,2.922c-.906-.488-2.573-.927-2.573-1.3V130.46C172,117.227,180.361,106,191.24,106ZM162.8,272c.337,0,.685.017,1.021.046a10.21,10.21,0,0,1,.079,20.31c-.376.034-.769.064-1.1.064a10.21,10.21,0,1,1,0-20.42Z" style="fill:#63316d"/><path d="M256,261.46a38.369,38.369,0,1,0-27.821-11.924A38.068,38.068,0,0,0,256,261.46Zm0-62.77a24.392,24.392,0,1,1-24.39,24.39A24.413,24.413,0,0,1,256,198.69Z" style="fill:#63316d"/></svg>
